<?xml version="1.0" encoding="UTF-8"?>
<svg version="1.1" xmlns="http://www.w3.org/2000/svg" width="1254" height="1254">
<path d="M0 0 C413.82 0 827.64 0 1254 0 C1254 413.82 1254 827.64 1254 1254 C840.18 1254 426.36 1254 0 1254 C0 840.18 0 426.36 0 0 Z " fill="#227C0E" transform="translate(0,0)"/>
<path d="M0 0 C413.82 0 827.64 0 1254 0 C1254 413.82 1254 827.64 1254 1254 C840.18 1254 426.36 1254 0 1254 C0 840.18 0 426.36 0 0 Z M544.71191406 71.52685547 C541.18029452 72.14301307 537.63806749 72.66972439 534.09204102 73.1953125 C527.72080698 74.14358919 521.66268882 75.20998828 515.5390625 77.26171875 C512.28804803 78.20701373 509.0243779 78.74075038 505.6875 79.3125 C485.46850263 82.8750212 465.1241948 89.60037668 446 97 C445.30221436 97.2673999 444.60442871 97.5347998 443.88549805 97.81030273 C425.22406756 104.93696894 425.22406756 104.93696894 407.1796875 113.47265625 C404.60233233 114.71067329 402.06858386 115.76881603 399.40625 116.796875 C358.40103744 132.99198642 319.54839887 160.90869055 286 189 C285.39317383 189.50772949 284.78634766 190.01545898 284.16113281 190.53857422 C282.3730601 192.040536 280.59115544 193.5494016 278.8125 195.0625 C278.31516357 195.48418457 277.81782715 195.90586914 277.30541992 196.34033203 C266.8800909 205.29905539 256.99260905 214.83997501 247.29541016 224.57421875 C245.60824042 226.26681347 243.91569804 227.95390597 242.22265625 229.640625 C236.6013502 235.25813315 231.12921419 240.92319964 226 247 C225.02738761 248.11835946 224.05345985 249.23557653 223.078125 250.3515625 C216.67481741 257.7433451 210.47573802 265.25981997 204.52197266 273.01855469 C203.46302404 274.39719231 202.39987971 275.77261311 201.33349609 277.14550781 C186.87623015 295.78787739 173.7100943 315.51293254 162 336 C161.63455078 336.63615234 161.26910156 337.27230469 160.89257812 337.92773438 C149.9568808 357.05137371 139.30396833 376.57471671 131 397 C130.64035156 397.8765625 130.28070313 398.753125 129.91015625 399.65625 C129.26951439 401.24113108 128.63775763 402.82963726 128.015625 404.421875 C127.25346533 406.356588 126.46832541 408.28227402 125.671875 410.203125 C121.88886277 419.40181791 118.68903196 428.73168232 115.59765625 438.18359375 C114.4229898 441.7638892 113.16539944 445.29496147 111.8125 448.8125 C109.74602595 454.37878967 108.39208052 460.10774055 107.0078125 465.87109375 C106.04415332 469.87565398 104.96592965 473.84070798 103.875 477.8125 C102.42156784 483.18734913 101.26236064 488.5244812 100.39453125 494.0234375 C100 496 100 496 99 497 C98.66690192 498.58644065 98.38805805 500.18434459 98.1328125 501.78515625 C97.97095459 502.78208496 97.80909668 503.77901367 97.64233398 504.80615234 C97.47161377 505.88074707 97.30089355 506.9553418 97.125 508.0625 C95.99980056 515.02578682 94.84081209 521.96238857 93.4375 528.875 C89.50251067 549.75409639 88.35549986 570.79443342 88 592 C87.97808594 593.03479492 87.95617187 594.06958984 87.93359375 595.13574219 C87.07459097 639.30280163 90.04786552 682.91045869 100 726 C100.23332031 727.03302246 100.46664062 728.06604492 100.70703125 729.13037109 C103.68741514 742.28908473 107.0930531 755.18670711 111.34033203 767.99267578 C112.28872115 770.8785586 113.17692351 773.78181327 114.0625 776.6875 C114.37316406 777.69683594 114.68382813 778.70617187 115.00390625 779.74609375 C115.74715497 782.17403958 116.4828714 784.60381952 117.21484375 787.03515625 C119.17240808 793.48479195 121.1445741 799.82347781 124.03515625 805.9296875 C125.45704987 808.98071429 126.65534876 812.11375395 127.875 815.25 C144.94902903 856.98651541 167.67805323 897.85412508 196 933 C196.49709473 933.62036133 196.99418945 934.24072266 197.50634766 934.87988281 C207.42636235 947.24448332 217.49853173 959.44090605 228.296875 971.05078125 C230.27170056 973.1790055 232.16561722 975.36248601 234.05078125 977.5703125 C238.71212264 982.91699637 243.74717877 987.8967737 248.76977539 992.90014648 C250.43426277 994.5592732 252.09333447 996.22368051 253.75195312 997.88867188 C259.32841285 1003.46898728 264.96751848 1008.90938035 271 1014 C272.09474336 1014.94937659 273.18852364 1015.89986506 274.28125 1016.8515625 C301.86889074 1040.67783179 331.06391548 1062.01522805 362.91943359 1079.82958984 C364.87018848 1080.92697531 366.80600315 1082.0462605 368.73828125 1083.17578125 C377.40222002 1088.20467759 386.30086802 1092.75523497 395.25 1097.25 C396.42232178 1097.84079346 397.59464355 1098.43158691 398.80249023 1099.0402832 C408.65335714 1103.94800801 418.67070109 1108.2125904 429 1112 C433.61863069 1113.69349792 438.15489674 1115.48315771 442.6796875 1117.4140625 C449.05789368 1120.08647292 455.53642197 1122.2833582 462.125 1124.375 C463.93991943 1124.95362793 463.93991943 1124.95362793 465.79150391 1125.54394531 C491.72953165 1133.71218133 518.36440162 1140.68935126 545.3125 1144.5625 C547.03792713 1144.81265486 548.76319342 1145.06392213 550.48828125 1145.31640625 C551.23634033 1145.42412354 551.98439941 1145.53184082 552.75512695 1145.64282227 C554.31666612 1145.89127597 555.87149312 1146.18431033 557.41845703 1146.51147461 C560.22501426 1147.04258119 562.96775066 1147.29347881 565.81640625 1147.5 C566.91017578 1147.5825 568.00394531 1147.665 569.13085938 1147.75 C571.42250544 1147.91694974 573.71417221 1148.08361545 576.00585938 1148.25 C577.09833984 1148.3325 578.19082031 1148.415 579.31640625 1148.5 C580.31099854 1148.5721875 581.30559082 1148.644375 582.33032227 1148.71875 C585 1149 585 1149 586.75273132 1149.50949097 C589.74301891 1150.16217798 592.56491173 1150.1273418 595.62597656 1150.12939453 C596.61242661 1150.13202301 596.61242661 1150.13202301 597.61880493 1150.13470459 C599.79277188 1150.13910309 601.96665721 1150.13618808 604.140625 1150.1328125 C605.66599544 1150.13348708 607.19136577 1150.13445839 608.71673584 1150.13571167 C611.92119363 1150.13718674 615.12562357 1150.13504376 618.33007812 1150.13037109 C622.3909241 1150.12473187 626.45170313 1150.12791666 630.51254654 1150.13394356 C633.67002847 1150.13760425 636.82749527 1150.13638471 639.98497772 1150.13381577 C641.47894041 1150.13315857 642.97290458 1150.13393156 644.46686554 1150.13629532 C657.86714111 1150.15281656 671.23396972 1149.76843462 684.51171875 1147.80078125 C685.72550957 1147.62761131 685.72550957 1147.62761131 686.96382141 1147.45094299 C689.53967383 1147.07974908 692.11365857 1146.69737405 694.6875 1146.3125 C696.02204224 1146.1156662 696.02204224 1146.1156662 697.38354492 1145.91485596 C713.40174339 1143.542333 729.2015569 1140.56627597 745 1137 C746.615728 1136.64771476 748.23159797 1136.29607954 749.84765625 1135.9453125 C833.40092378 1117.46491834 913.4707536 1073.73942041 976.48828125 1016.265625 C977.83026604 1015.0551255 979.17792237 1013.85003726 980.55981445 1012.68530273 C987.26005079 1006.99364623 993.40746379 1000.74320736 999.60913086 994.52124023 C1001.5579687 992.56704376 1003.51209272 990.61824853 1005.46679688 988.66992188 C1011.52235274 982.61789266 1017.50123868 976.57054549 1023 970 C1023.88799739 968.97801342 1024.77726678 967.9571303 1025.66796875 966.9375 C1031.79573611 959.79318829 1037.52786169 952.43207559 1043.12109375 944.86328125 C1045.55152085 941.57872577 1048.07717841 938.38210992 1050.625 935.1875 C1063.29004848 918.77818033 1074.5418888 900.87801378 1085 883 C1085.37350586 882.36191406 1085.74701172 881.72382812 1086.13183594 881.06640625 C1091.6405234 871.58971964 1096.72148807 861.89293269 1101.75170898 852.15551758 C1104.00882788 847.78897015 1106.29121351 843.45251319 1108.71484375 839.17578125 C1110.54866607 835.90057894 1112.04220836 832.66612187 1113.3125 829.125 C1115.38660654 823.53080097 1117.65428183 818.04799731 1120 812.5625 C1123.29042733 804.79718244 1126.34026662 797.00663775 1129 789 C1129.32081543 788.04013184 1129.64163086 787.08026367 1129.97216797 786.09130859 C1134.68327713 771.92410346 1139.04724276 757.7174734 1142.79248047 743.26269531 C1143.05561035 742.24916992 1143.31874023 741.23564453 1143.58984375 740.19140625 C1143.81534912 739.30654541 1144.04085449 738.42168457 1144.27319336 737.51000977 C1145 735 1145 735 1146.02783203 732.51489258 C1147.06125813 729.8415319 1147.54260232 727.40250982 1147.96484375 724.5703125 C1148.12533203 723.52617188 1148.28582031 722.48203125 1148.45117188 721.40625 C1148.61166016 720.3234375 1148.77214844 719.240625 1148.9375 718.125 C1149.96088608 711.30242615 1151.06821974 704.5276886 1152.4609375 697.76953125 C1158.63286939 667.21155877 1159.474722 636.81655908 1159.4375 605.75 C1159.43748867 604.87597157 1159.43747734 604.00194313 1159.43746567 603.10142899 C1161.59228065 571.68583375 1161.59228065 571.68583375 1156 542 C1155.80398857 540.51395569 1155.65626058 539.02135912 1155.53515625 537.52734375 C1155.45716797 536.62693359 1155.37917969 535.72652344 1155.29882812 534.79882812 C1155.14354557 532.91875426 1154.98985107 531.03854842 1154.83789062 529.15820312 C1154.38862946 524.00448354 1153.67929239 519.08749054 1152.47485352 514.05639648 C1151.78811068 511.08239397 1151.36492746 508.08322684 1150.9375 505.0625 C1150.4235559 500.88879464 1150.4235559 500.88879464 1149 497 C1148.7022682 495.2961487 1148.43700796 493.586578 1148.1875 491.875 C1146.93215595 484.12140438 1145.00844418 476.5835165 1143 469 C1142.83161621 468.35450195 1142.66323242 467.70900391 1142.48974609 467.04394531 C1139.82176907 456.86828606 1136.76679085 446.80689174 1133.65924072 436.75830078 C1133.22625511 435.35716077 1132.79500663 433.95548253 1132.36566162 432.55322266 C1129.99470607 424.8255264 1127.4234624 417.27868218 1124.21923828 409.84667969 C1122.99922072 406.99818054 1121.86239665 404.12885657 1120.74609375 401.23828125 C1115.26136312 387.1179417 1109.14197743 373.44594641 1102.41552734 359.875 C1101.12332967 357.25048813 1099.86245513 354.61393511 1098.61328125 351.96875 C1083.96333767 321.2837319 1064.24379951 291.48336119 1043 265 C1042.17459717 263.96262695 1042.17459717 263.96262695 1041.33251953 262.90429688 C1035.48222439 255.55998827 1029.5614666 248.31365607 1023.1953125 241.40625 C1021.32712043 239.35855193 1019.49922263 237.28600398 1017.6796875 235.1953125 C1007.62293828 223.67815073 997.01593006 212.83326387 985.703125 202.55029297 C984.12748794 201.11604765 982.56195495 199.67176836 981 198.22265625 C974.86000602 192.5623493 968.52705937 187.20766718 962 182 C961.49162598 181.59201172 960.98325195 181.18402344 960.45947266 180.76367188 C923.38892896 151.0528048 882.70510328 125.0965024 838.61328125 107.109375 C836.42276702 106.1794706 834.34869124 105.17814414 832.25 104.0625 C825.74988811 100.76685209 818.86680001 98.40139538 812 96 C810.51113281 95.47792969 810.51113281 95.47792969 808.9921875 94.9453125 C791.64699644 88.94280008 774.09269444 84.03848652 756.3125 79.5 C755.29308319 79.238703 754.27366638 78.97740601 753.22335815 78.70819092 C742.8689988 76.06468899 732.59320341 73.49694717 722 72 C720.53964268 71.7555768 719.07995393 71.50711206 717.62109375 71.25390625 C708.21521083 69.68161284 698.78895598 68.44188577 689.3125 67.375 C687.69396118 67.19046265 687.69396118 67.19046265 686.04272461 67.00219727 C668.54744895 65.09311869 651.16540168 64.78358041 633.5793457 64.75976562 C630.84483185 64.75542308 628.11064103 64.74167151 625.3762207 64.71875 C598.11604087 64.49523396 571.58286254 66.67186072 544.71191406 71.52685547 Z " fill="#FDFDFD" transform="translate(0,0)"/>
<path d="M0 0 C1.74588409 0.00173721 1.74588409 0.00173721 3.52703857 0.00350952 C28.73927495 0.05299782 53.6923166 1.39574424 78.53710938 5.94628906 C80.58928427 6.31734286 82.64462549 6.65814125 84.703125 6.9921875 C102.034618 9.8437931 119.03312521 14.07948037 135.9942627 18.59933472 C137.59510775 19.02566019 139.19657002 19.44967627 140.79870605 19.87112427 C151.66275361 22.73792238 162.10790519 26.20197305 172.5625 30.3125 C174.8115804 31.16908511 177.0614159 32.02369449 179.3125 32.875 C233.26325525 53.44560919 284.65425889 84.57255528 326.97265625 123.93359375 C329.03953269 125.83212731 331.1330572 127.67301643 333.2578125 129.50512695 C337.33044033 133.06486792 341.20012777 136.78891467 345.02734375 140.609375 C345.70495255 141.2836554 346.38256134 141.95793579 347.08070374 142.65264893 C348.50294061 144.06986074 349.92386019 145.48839567 351.34350586 146.90820312 C353.48596492 149.04847922 355.6362999 151.18061981 357.78710938 153.3125 C365.179083 160.67449047 372.14404939 168.07604422 378.5625 176.3125 C379.43723806 177.36374529 380.31753299 178.41043283 381.20703125 179.44921875 C402.58929145 204.60708526 420.70244831 232.57955218 436.16601562 261.70019531 C437.43861877 264.08076413 438.73659921 266.44471412 440.046875 268.8046875 C451.45618893 289.57507297 460.97814648 311.87404967 468.5625 334.3125 C468.93173584 335.39088135 469.30097168 336.4692627 469.68139648 337.58032227 C480.13826601 368.4550171 488.01207056 399.90969603 493.3125 432.0625 C493.46165863 432.94388641 493.61081726 433.82527283 493.76449585 434.73336792 C498.19322183 461.14176529 498.95039688 487.76989933 498.875 514.5 C498.87337255 515.83425889 498.87186851 517.16851794 498.8704834 518.5027771 C498.82486242 546.75091144 497.14307851 574.12245713 491.95996094 601.93457031 C491.58553545 604.17468351 491.33891287 606.38748567 491.1328125 608.6484375 C490.51337147 614.65708162 489.00675254 620.45766567 487.5625 626.3125 C487.27713379 627.47571777 486.99176758 628.63893555 486.69775391 629.83740234 C471.06897501 692.76939879 445.70352334 751.69957695 407.79345703 804.59179688 C406.53598507 806.3495641 405.29597434 808.11866901 404.05859375 809.890625 C398.18364926 818.26488696 391.96907789 826.33938549 385.5625 834.3125 C384.81226563 835.24707031 384.06203125 836.18164062 383.2890625 837.14453125 C381.06673254 839.88433516 378.82167141 842.60299542 376.5625 845.3125 C376.13420898 845.8271582 375.70591797 846.34181641 375.26464844 846.87207031 C361.86250859 862.91823489 347.56923174 878.93808894 331.6328125 892.51953125 C329.1797589 894.64396824 326.81546853 896.85438637 324.4375 899.0625 C318.69787393 904.29036243 312.66841568 909.05828503 306.51953125 913.79248047 C304.46697823 915.38669144 302.43553364 917.00519801 300.40625 918.62890625 C279.04036192 935.64057451 255.82079417 950.08192299 231.82910156 963.08300781 C230.326076 963.8983069 228.82538656 964.71792849 227.32714844 965.54199219 C206.31461717 977.08743965 184.33111997 986.12855429 161.76293945 994.16015625 C159.63350534 994.92687599 157.51198171 995.71594054 155.39916992 996.52734375 C144.90355423 1000.4840335 134.15448666 1003.00525734 123.25 1005.5625 C120.42914384 1006.22905982 117.60886285 1006.89787004 114.789505 1007.57073975 C113.04988696 1007.98543912 111.30933932 1008.39626227 109.5677948 1008.80279541 C105.75510158 1009.42573193 105.75510158 1009.42573193 102.5625 1011.3125 C99.91824357 1011.81645702 97.28308966 1012.26882553 94.625 1012.6875 C92.95304815 1012.95524971 91.28117496 1013.22349102 89.609375 1013.4921875 C88.75794922 1013.62850586 87.90652344 1013.76482422 87.02929688 1013.90527344 C84.8314201 1014.26810583 82.64247517 1014.65967532 80.453125 1015.0703125 C69.07310765 1017.16540146 57.62638872 1018.27733115 46.1105957 1019.31054688 C44.81984131 1019.42720703 43.52908691 1019.54386719 42.19921875 1019.6640625 C41.04123779 1019.76541504 39.88325684 1019.86676758 38.69018555 1019.97119141 C35.68361302 1020.24100103 35.68361302 1020.24100103 33.26097107 1020.82574463 C30.20964346 1021.37614894 27.36015262 1021.43964981 24.25927734 1021.44189453 C23.0080307 1021.44504669 21.75678406 1021.44819885 20.46762085 1021.45144653 C19.11122604 1021.44965691 17.75483155 1021.447606 16.3984375 1021.4453125 C15.00029483 1021.44598656 13.60215228 1021.44695745 12.20401001 1021.44821167 C9.28052652 1021.44968284 6.35707367 1021.44755211 3.43359375 1021.44287109 C-0.31350443 1021.43716356 -4.06053114 1021.44046294 -7.80762672 1021.44644356 C-10.69178812 1021.45005583 -13.57593255 1021.4489077 -16.46009445 1021.44631577 C-17.84199405 1021.44564889 -19.2238952 1021.44646657 -20.605793 1021.44879532 C-22.53488384 1021.45133385 -24.46398008 1021.44677893 -26.39306641 1021.44189453 C-27.49051178 1021.44109894 -28.58795715 1021.44030334 -29.71865845 1021.43948364 C-32.4375 1021.3125 -32.4375 1021.3125 -35.4375 1020.3125 C-36.7634299 1020.16770348 -38.09414318 1020.06441393 -39.42578125 1019.98828125 C-52.38182735 1019.11710748 -65.12323037 1017.41732938 -77.9375 1015.375 C-79.14401718 1015.18413315 -79.14401718 1015.18413315 -80.37490845 1014.9894104 C-107.42435165 1010.69048288 -107.42435165 1010.69048288 -120.0625 1007 C-121.17951294 1006.68035278 -121.17951294 1006.68035278 -122.3190918 1006.35424805 C-123.89508855 1005.90314693 -125.47052694 1005.45009066 -127.04541016 1004.99511719 C-129.43547098 1004.31307901 -131.8314201 1003.6574638 -134.23046875 1003.0078125 C-163.25660795 995.07104462 -191.31426715 984.32506313 -218.4375 971.3125 C-217.14454763 967.94052201 -215.6887073 964.7757243 -213.96875 961.6015625 C-199.18890409 934.01153197 -188.01137449 905.4051183 -179.4375 875.3125 C-175.71943647 876.06666765 -172.47808104 877.55800161 -169.03125 879.12109375 C-167.73175033 879.70494369 -166.4319314 880.28808342 -165.13183594 880.87060547 C-164.44891479 881.17722107 -163.76599365 881.48383667 -163.06237793 881.79974365 C-122.43758746 899.96735906 -79.62416549 912.64057113 -35.4375 918.3125 C-34.29345703 918.46348145 -33.14941406 918.61446289 -31.97070312 918.77001953 C-0.80332469 922.74527542 31.35150838 922.9954229 62.5625 919.3125 C64.04937726 919.15398906 65.53635279 918.99639648 67.0234375 918.83984375 C75.98296335 917.85235227 84.74700493 916.16543845 93.5625 914.3125 C94.69429687 914.09851563 95.82609375 913.88453125 96.9921875 913.6640625 C128.05341339 907.78387497 158.13578773 898.10417117 187.06445312 885.40429688 C189.34177848 884.40896859 191.62796379 883.44070381 193.921875 882.484375 C202.06499533 879.05990119 209.83740717 875.12074224 217.62036133 870.94458008 C223.44669806 867.83867013 229.31616842 865.13366013 235.421875 862.61328125 C238.42072784 861.37121907 241.3664802 860.04941698 244.3125 858.6875 C257.63513297 852.60375431 271.5236019 847.75193491 285.34667969 842.9375 C291.71615007 840.7190178 297.98311967 838.38847103 304.1875 835.734375 C309.57479165 833.46472898 315.01340756 831.3236606 320.4465332 829.16650391 C325.18263596 827.28139043 329.88533829 825.34083434 334.5625 823.3125 C335.30089111 822.99990234 336.03928223 822.68730469 336.80004883 822.36523438 C347.17796325 817.96052734 356.96923991 813.75899921 365.5625 806.3125 C366.29597656 805.68859375 367.02945313 805.0646875 367.78515625 804.421875 C377.96582675 795.059464 385.13070883 779.37323434 385.72363281 765.55810547 C385.7433978 764.09869953 385.75704432 762.63920205 385.765625 761.1796875 C385.77250336 760.39422043 385.77938171 759.60875336 385.78646851 758.79948425 C385.80364475 756.26210904 385.80993033 753.72493037 385.8125 751.1875 C385.81417175 750.32591278 385.81584351 749.46432556 385.81756592 748.57662964 C385.81901248 736.18611136 385.12438464 724.45958228 382.5625 712.3125 C378.21836854 687.98536382 379.95114605 661.27396743 383.11328125 636.8203125 C389.44599829 582.97652711 374.74219324 524.81658317 354.5625 475.3125 C354.24812988 474.5400293 353.93375977 473.76755859 353.60986328 472.97167969 C349.80869348 463.69044083 345.86559234 454.56717837 341.203125 445.68359375 C339.921375 443.04990268 338.83846655 440.49222788 337.79296875 437.765625 C335.19203365 431.15796115 331.91021661 424.91231397 328.625 418.625 C328.29514099 417.99078125 327.96528198 417.3565625 327.62542725 416.703125 C317.61575578 397.47109337 306.69291934 378.78309193 295.71458435 360.09420776 C271.68709385 319.18366962 251.954054 277.10940933 234.8984375 232.86328125 C234.60805099 232.11316269 234.31766449 231.36304413 234.01847839 230.5901947 C232.65856997 227.07620173 231.31003735 223.55888967 229.98657227 220.03100586 C225.24095385 207.57053889 218.76929033 197.89443968 209.5625 188.3125 C208.87542969 187.57386719 208.18835938 186.83523438 207.48046875 186.07421875 C201.09027593 179.39949044 193.91411568 173.86924608 186.5625 168.3125 C185.97194824 167.86116699 185.38139648 167.40983398 184.77294922 166.94482422 C161.76365969 149.39858117 136.32321002 135.35746702 110.5625 122.3125 C109.65483887 121.8479541 108.74717773 121.3834082 107.81201172 120.90478516 C75.65547196 104.54099981 41.64948857 91.94478934 7.52534485 80.38162231 C2.78673102 78.76528565 -1.87407097 77.01912434 -6.48779297 75.06982422 C-14.76188095 71.85592228 -27.36725389 71.46640279 -35.5625 74.9375 C-36.86381956 75.7131973 -38.15465712 76.50661351 -39.4375 77.3125 C-40.03691406 77.67134277 -40.63632812 78.03018555 -41.25390625 78.39990234 C-48.08863392 82.96054917 -51.98942506 89.51589008 -56.3125 96.3125 C-57.51372063 98.16521354 -58.7200068 100.01456044 -59.92658997 101.86378479 C-60.7123842 103.06881208 -61.49657737 104.27488507 -62.27909851 105.48204041 C-64.91094806 109.53712282 -67.63875324 113.47956767 -70.5 117.375 C-100.28174837 155.33153399 -100.28174837 155.33153399 -112.4375 199.3125 C-109.82730083 214.2658444 -94.71206798 226.28499921 -84.23828125 236.3515625 C-82.4375 238.3125 -82.4375 238.3125 -82.4375 240.3125 C-81.84582031 240.2196875 -81.25414062 240.126875 -80.64453125 240.03125 C-78.06399628 239.79550782 -75.97535696 239.7609793 -73.4375 240.3125 C-71.80012315 242.07371207 -70.89533141 243.89340652 -69.78515625 246.0234375 C-65.03917465 254.08472799 -55.95072731 259.10777679 -47.4375 262.3125 C-45.54904866 262.61322505 -43.65208582 262.86564077 -41.75 263.0625 C-35.71611428 263.90483732 -33.63281325 267.07158111 -29.9375 271.64453125 C-22.6811881 279.3883766 -11.21874403 283.75960695 -1.4375 287.3125 C-0.7671875 287.55871094 -0.096875 287.80492187 0.59375 288.05859375 C12.83338818 291.81865209 25.84098186 289.28381918 36.97265625 283.55859375 C42.61481223 280.40345614 42.61481223 280.40345614 47.5625 276.3125 C51.20891171 276.60754161 52.91743326 278.36964182 55.4375 280.875 C69.59806969 293.80522511 85.83281634 297.86388482 104.5625 298.3125 C104.79324219 299.05113281 105.02398438 299.78976562 105.26171875 300.55078125 C105.58785156 301.56527344 105.91398438 302.57976562 106.25 303.625 C106.56324219 304.61113281 106.87648438 305.59726562 107.19921875 306.61328125 C108.28941941 309.57150481 109.48310672 312.30108218 110.83203125 315.140625 C114.35827335 322.79350054 116.92830598 330.75757714 119.5625 338.75 C119.82640533 339.54564362 120.09031067 340.34128723 120.36221313 341.16104126 C130.10085604 370.58199405 130.10085604 370.58199405 131.30981445 384.53833008 C131.38453649 386.33464951 131.38453649 386.33464951 132.5625 387.3125 C135.90456111 407.60358531 134.21508745 429.62292487 128.5625 449.3125 C126.94491616 455.39231093 125.41725212 461.49601907 123.87670898 467.59570312 C123.3807921 469.55295613 122.8815146 471.50936113 122.37866211 473.46484375 C119.23689846 485.68776587 116.59163148 497.81842302 114.84521484 510.32089233 C114.41300363 513.36563933 113.92422572 516.40107144 113.4375 519.4375 C113.12870439 521.39320554 112.83829221 523.35186808 112.5625 525.3125 C112.38203125 526.54871094 112.2015625 527.78492188 112.015625 529.05859375 C111.27240135 535.94742884 111.41408047 542.89060484 111.43212891 549.81079102 C111.43741879 552.21311971 111.43219731 554.61525565 111.42578125 557.01757812 C111.42163286 567.81292765 111.85583892 578.5411501 112.5625 589.3125 C111.9025 589.3125 111.2425 589.3125 110.5625 589.3125 C109.2578125 587.94921875 109.2578125 587.94921875 107.6875 586 C81.20356703 555.05676004 42.0238579 537.84563358 2.875 530.125 C2.04484375 529.95798584 1.2146875 529.79097168 0.359375 529.61889648 C-33.98554232 523.09188413 -74.52022676 525.62868271 -107.51391602 537.0300293 C-108.46609009 537.16985229 -108.46609009 537.16985229 -109.4375 537.3125 C-111.65776195 535.41812012 -113.54002166 533.57542069 -115.5 531.4375 C-116.66411327 530.22155753 -117.83212836 529.00933923 -119.00390625 527.80078125 C-119.87426514 526.90286865 -119.87426514 526.90286865 -120.76220703 525.98681641 C-124.68498691 522.0663232 -129.06748869 518.71276161 -133.4375 515.3125 C-134.87609375 514.14847656 -134.87609375 514.14847656 -136.34375 512.9609375 C-156.62808349 496.82567222 -179.74945179 484.24657253 -204.4375 476.3125 C-205.19184326 476.06991455 -205.94618652 475.8273291 -206.72338867 475.57739258 C-278.45816544 452.81810505 -359.9085193 460.466584 -426.99536133 494.32177734 C-444.65365038 503.49874454 -460.6027249 514.80413594 -475.21875 528.28125 C-477.20765799 530.10208125 -479.24432976 531.83337406 -481.3125 533.5625 C-489.66615069 540.84647591 -496.94415676 549.36221608 -503.4375 558.3125 C-503.7675 558.3125 -504.0975 558.3125 -504.4375 558.3125 C-512.30102393 526.329764 -508.39767762 483.61810883 -503.4375 451.3125 C-503.29876465 450.38373047 -503.1600293 449.45496094 -503.01708984 448.49804688 C-502.39781887 444.38720423 -501.7483712 440.28317105 -501.05859375 436.18359375 C-500.44163211 432.33825421 -500.0284251 428.52261514 -499.69287109 424.64575195 C-495.4031598 385.45189835 -479.91521313 342.87568735 -463.4375 307.3125 C-462.47796336 305.18283342 -461.51969116 303.0525968 -460.5625 300.921875 C-453.60323468 285.58008608 -446.00927413 270.82822458 -437.4375 256.3125 C-436.45127913 254.61359681 -435.46559057 252.91438447 -434.48046875 251.21484375 C-417.37720924 221.95919291 -397.23537007 193.86553733 -374.03515625 169.12109375 C-372.11819334 167.04846769 -370.27925816 164.95846259 -368.44921875 162.8125 C-363.54560373 157.18723841 -358.25276657 151.94174186 -352.97802734 146.66772461 C-351.19988228 144.88739748 -349.42990439 143.09921623 -347.66015625 141.31054688 C-341.61089059 135.23217539 -335.50393603 129.48560135 -328.76318359 124.1706543 C-326.52454914 122.38204976 -324.41336935 120.50980574 -322.3125 118.5625 C-305.00818326 103.04086598 -285.1736293 89.53410647 -265.4375 77.3125 C-264.63957031 76.81814453 -263.84164062 76.32378906 -263.01953125 75.81445312 C-235.74310023 59.04684863 -206.89288165 44.15492468 -176.69140625 33.46875 C-173.58485302 32.36486074 -170.49698566 31.22226265 -167.4140625 30.0546875 C-164.04073864 28.78802439 -160.65180299 27.56473532 -157.26171875 26.34375 C-155.48662487 25.69558294 -153.71727802 25.03121646 -151.95703125 24.34375 C-143.00098261 20.90018401 -133.72798951 18.65207583 -124.4375 16.3125 C-123.51356445 16.0767627 -122.58962891 15.84102539 -121.63769531 15.59814453 C-102.76746328 10.81681472 -83.81837489 6.80936366 -64.46679688 4.60620117 C-62.41882989 4.3453407 -62.41882989 4.3453407 -60.37963867 3.79394531 C-56.19377985 2.75629433 -51.74953354 2.89917928 -47.45703125 2.69140625 C-43.95811069 2.48051959 -40.51907101 2.05414012 -37.04766846 1.57388306 C-24.72165736 -0.07470685 -12.4175411 -0.03818107 0 0 Z " fill="#FDFDFD" transform="translate(627.4375,96.6875)"/>
<path d="M0 0 C1.27327148 0.55276611 1.27327148 0.55276611 2.57226562 1.11669922 C51.71594629 22.57532077 100.63003006 48.22713396 141 84 C141.51111328 84.44939941 142.02222656 84.89879883 142.54882812 85.36181641 C159.91342327 100.67808478 170.33144464 116.36321063 179 137.5625 C179.70898126 139.27201996 180.41886783 140.98116473 181.12963867 142.68994141 C184.90979493 151.80076035 188.59236201 160.94746513 192.19750977 170.12890625 C195.97993704 179.64162249 200.34185749 188.89912211 204.68017578 198.16796875 C205.88405225 200.7512035 207.06856691 203.34217793 208.24609375 205.9375 C213.61924263 217.67782415 219.84674488 228.84452647 226.29296875 240.02539062 C228.58299441 244.01590445 230.83405132 248.02784094 233.08666992 252.03955078 C237.11391245 259.20736862 241.15988733 266.35327731 245.4375 273.375 C256.42530445 291.45989577 266.36929648 310.16534269 276 329 C276.34562988 329.67466309 276.69125977 330.34932617 277.04736328 331.04443359 C280.95933164 338.70115689 284.39345043 346.39382961 287.4375 354.4375 C288.7927223 357.99495855 290.14593229 361.45331055 291.9375 364.8125 C297.42935855 375.44752766 300.83167839 387.31050447 304.625 398.625 C304.99713623 399.73206299 305.36927246 400.83912598 305.75268555 401.97973633 C310.07354861 414.99224439 313.66189745 428.08770237 316.5 441.5 C316.72444794 442.55300797 316.72444794 442.55300797 316.95343018 443.62728882 C320.13138378 458.64832607 322.35205748 473.73312342 324 489 C324.103125 489.90395508 324.20625 490.80791016 324.3125 491.73925781 C325.35551378 502.16567054 325.24011586 512.65748792 325.25 523.125 C325.25200409 524.15503143 325.25400818 525.18506287 325.256073 526.24630737 C325.26534526 545.79014487 324.87799717 565.74133727 321.46118164 585.04394531 C321.00475704 587.9695086 320.87071519 590.70949697 320.8671875 593.66796875 C320.86589844 594.72693359 320.86460937 595.78589844 320.86328125 596.87695312 C320.86714844 597.96943359 320.87101563 599.06191406 320.875 600.1875 C320.87113281 601.26064453 320.86726562 602.33378906 320.86328125 603.43945312 C320.87058874 609.47909037 321.16231715 615.39556638 321.76855469 621.40307617 C322.93342274 634.47343636 323.80373272 648.93967864 315.76171875 659.9609375 C308.32949725 668.56319831 298.70963671 670.94616623 287.86328125 672.71875 C287.02137741 672.86276245 286.17947357 673.0067749 285.3120575 673.15515137 C282.64661922 673.61011302 279.97972824 674.05566386 277.3125 674.5 C273.80790281 675.0897267 270.30415445 675.68429856 266.80078125 676.28125 C265.95693878 676.42361084 265.11309631 676.56597168 264.24368286 676.71264648 C258.01674269 677.77904867 251.8812767 679.08035432 245.73901367 680.56445312 C243.06450846 680.98974213 241.52393403 680.89423274 239 680 C239.60360352 679.67837891 240.20720703 679.35675781 240.82910156 679.02539062 C270.69021718 663.06455033 298.07978665 645.60197696 308.7734375 611.65234375 C311.53638147 601.71404751 312.29416618 591.97483623 312.23046875 581.6953125 C312.23001053 580.45490204 312.22955231 579.21449158 312.2290802 577.93649292 C312.22607605 575.32288654 312.21824539 572.70928165 312.20581055 570.09570312 C312.18770984 566.17050551 312.18530038 562.24554729 312.18554688 558.3203125 C312.16415716 543.52073519 311.835217 528.77632472 311 514 C310.34 514 309.68 514 309 514 C308.86207031 515.30839844 308.72414063 516.61679687 308.58203125 517.96484375 C307.19220634 530.4245876 304.85450662 542.65189529 301.60205078 554.75683594 C300.93167423 557.25457307 300.27691753 559.75621663 299.62109375 562.2578125 C289.36106187 601.03304732 273.51575361 636.99198178 237.4140625 658.1015625 C236.28742187 658.72804688 235.16078125 659.35453125 234 660 C233.41444336 660.3309668 232.82888672 660.66193359 232.22558594 661.00292969 C197.23354174 680.54685603 155.26692208 682.74313536 116.3125 677 C84.42060447 672.33418652 49.26136548 672.53655715 18 681 C20.22872975 681.56427528 22.45789994 682.12667874 24.6875 682.6875 C25.40228516 682.86756592 26.11707031 683.04763184 26.85351562 683.2331543 C30.85939923 684.23591023 34.86975362 685.20862204 38.89453125 686.1328125 C83.21243925 696.34024403 83.21243925 696.34024403 97 704 C94.49141593 706.50858407 92.19766825 707.20017227 88.875 708.4375 C87.77929688 708.84871094 86.68359375 709.25992188 85.5546875 709.68359375 C84.38164063 710.11800781 83.20859375 710.55242188 82 711 C80.71996979 711.48285482 79.44002503 711.96593621 78.16015625 712.44921875 C61.65989129 718.62298887 45.35690259 722.93906327 28 726 C27.10990234 726.15984375 26.21980469 726.3196875 25.30273438 726.484375 C20.21249729 727.39348586 15.12233642 728.29040431 10 729 C9.31164062 729.09643799 8.62328125 729.19287598 7.9140625 729.29223633 C0.07138012 730.23319064 -7.7964318 730.18609398 -15.68359375 730.18530273 C-18.09914114 730.18747673 -20.51422121 730.20565392 -22.9296875 730.22460938 C-35.8815581 730.27242729 -48.44396773 729.41302093 -61 726 C-63.84477953 725.47930678 -66.70322334 725.05783349 -69.5625 724.625 C-77.90177503 723.29160836 -85.8828424 721.35605703 -94 719 C-95.48816983 718.579033 -96.97645561 718.15847572 -98.46484375 717.73828125 C-99.97685936 717.30572383 -101.48858433 716.87214904 -103 716.4375 C-103.69424072 716.23979004 -104.38848145 716.04208008 -105.10375977 715.83837891 C-109.56376692 714.53146052 -113.73303708 712.85907075 -118 711 C-119.97144933 710.33097913 -121.95053491 709.68392667 -123.9375 709.0625 C-128.09507824 707.70408335 -131.87190234 706.17008185 -135.71777344 704.10791016 C-138.37701349 702.81697826 -141.08369568 701.82179989 -143.859375 700.8046875 C-151.23461499 697.99196081 -158.27495725 694.61622927 -165.3125 691.0625 C-165.95863251 690.73807922 -166.60476501 690.41365845 -167.27047729 690.07940674 C-180.1686988 683.58970821 -192.66566575 676.50804174 -205 669 C-206.4219165 668.13665039 -206.4219165 668.13665039 -207.87255859 667.25585938 C-230.89299271 653.23829108 -230.89299271 653.23829108 -238 648 C-238 647.67 -238 647.34 -238 647 C-231.01700997 647.27765368 -224.25508724 648.08636251 -217.3828125 649.29882812 C-165.63195622 658.32434219 -110.71118635 659.89891734 -59 650 C-58.23510254 649.85868652 -57.47020508 649.71737305 -56.68212891 649.57177734 C-30.44022141 644.59994287 -2.34966486 633.58575515 18 616 C18.98742187 615.16082031 19.97484375 614.32164062 20.9921875 613.45703125 C32.5186947 603.41899795 46.06943011 589.79170967 51 575 C50.06285156 575.58265625 49.12570312 576.1653125 48.16015625 576.765625 C35.55953161 584.45902317 22.44147561 590.91129945 9 597 C8.18917969 597.36786621 7.37835937 597.73573242 6.54296875 598.11474609 C-2.74010761 602.23807401 -12.18174977 604.98048605 -22.0625 607.3125 C-23.09044678 607.55532715 -24.11839355 607.7981543 -25.17749023 608.04833984 C-40.84985374 611.527804 -56.37269302 612.41260461 -72.375 612.375 C-73.29441376 612.37412384 -74.21382751 612.37324768 -75.16110229 612.37234497 C-90.79570158 612.32346624 -105.64499434 611.10355436 -121 608 C-122.27568848 607.75330566 -123.55137695 607.50661133 -124.86572266 607.25244141 C-149.1937865 602.54209973 -172.88642449 596.04536018 -196.609375 588.921875 C-197.84192017 588.55230682 -199.07446533 588.18273865 -200.34436035 587.80197144 C-206.56899459 585.93473159 -212.79089485 584.05928356 -219.0078125 582.16650391 C-230.57218755 578.66461429 -242.14825136 575.33371146 -253.890625 572.4765625 C-255.44037018 572.095569 -255.44037018 572.095569 -257.02142334 571.70687866 C-261.7638517 570.58703527 -266.08858073 569.6702838 -271 570 C-271 569.34 -271 568.68 -271 568 C-271.83402344 567.87882813 -272.66804688 567.75765625 -273.52734375 567.6328125 C-280.09115424 566.65538368 -286.54302216 565.53216423 -293 564 C-291.59991254 559.32113628 -289.65241431 555.16883516 -287.25 550.9375 C-286.86223389 550.25341064 -286.47446777 549.56932129 -286.07495117 548.86450195 C-274.38163618 528.61818194 -260.57019936 509.10849543 -245.109375 491.56640625 C-243.33029459 489.40185842 -242.08921304 487.55965065 -241 485 C-267.55231946 491.91087767 -290.42026317 508.28091095 -310 527 C-311.31484375 528.25296875 -311.31484375 528.25296875 -312.65625 529.53125 C-318.59700328 535.32531802 -323.87744412 541.47798298 -329 548 C-329.79148437 548.98613281 -330.58296875 549.97226562 -331.3984375 550.98828125 C-342.0017378 564.41801333 -350.76598759 578.8726697 -358.86962891 593.91992188 C-359.88491045 595.78821533 -360.92538382 597.63837745 -361.98046875 599.484375 C-384.47833596 639.74859921 -397.8925556 685.99957576 -400 732 C-375.1418616 723.44937765 -352.45203268 711.49357474 -332 695 C-331.03191406 694.22527344 -330.06382812 693.45054687 -329.06640625 692.65234375 C-323.22796497 687.93138499 -317.56347198 683.0414672 -312 678 C-310.62474683 680.75050634 -311.31999153 682.09553489 -312.0390625 685.06640625 C-312.41164185 686.61920288 -312.41164185 686.61920288 -312.79174805 688.20336914 C-313.20420776 689.86613892 -313.20420776 689.86613892 -313.625 691.5625 C-313.90061768 692.68970459 -314.17623535 693.81690918 -314.46020508 694.97827148 C-317.39970459 706.85554131 -320.6196245 718.56611153 -325 730 C-325.4228125 731.13824219 -325.845625 732.27648437 -326.28125 733.44921875 C-326.6834375 734.51785156 -327.085625 735.58648438 -327.5 736.6875 C-327.9021875 737.76386719 -328.304375 738.84023438 -328.71875 739.94921875 C-329.93334725 742.84129331 -331.38541139 745.31862963 -333 748 C-333.73112481 749.6789542 -334.46039049 751.35887594 -335.16455078 753.04931641 C-340.06463761 764.49048933 -346.09914652 775.49231656 -352.4375 786.1875 C-352.94531006 787.05463623 -353.45312012 787.92177246 -353.97631836 788.81518555 C-354.69766968 790.01075073 -354.69766968 790.01075073 -355.43359375 791.23046875 C-356.06865845 792.28850708 -356.06865845 792.28850708 -356.71655273 793.36791992 C-358 795 -358 795 -361 796 C-368.28201776 791.32573184 -374.41470102 784.71753191 -380.4375 778.56640625 C-383.21464176 775.78503104 -386.11966388 773.2277881 -389.1015625 770.671875 C-394.47384788 765.94072656 -399.31370964 760.73594763 -403.96875 755.30859375 C-406.00163383 752.99814309 -408.09855055 750.75607186 -410.20849609 748.51611328 C-415.95942416 742.39356997 -421.23656424 736.03993473 -426.359375 729.38671875 C-428.77327413 726.26010268 -431.30752632 723.25228777 -433.875 720.25 C-453.19724456 697.21665767 -469.51199009 670.82542144 -483.71240234 644.39453125 C-484.6031722 642.7379763 -485.49971758 641.08451879 -486.40087891 639.43359375 C-503.43674254 608.17178857 -516.14113444 574.92399562 -526.16357422 540.80419922 C-526.71797058 538.94553121 -527.29235074 537.09269906 -527.88720703 535.24658203 C-530.71997226 526.37080506 -530.71997226 526.37080506 -530 522 C-528.27734375 519.5078125 -528.27734375 519.5078125 -525.9375 517.125 C-525.11121094 516.26132812 -524.28492188 515.39765625 -523.43359375 514.5078125 C-522.63050781 513.68023438 -521.82742188 512.85265625 -521 512 C-519.82310769 510.67568381 -518.65546212 509.34305479 -517.5 508 C-516.33352103 506.66650245 -515.16684782 505.33317481 -514 504 C-513.3709375 503.27683594 -512.741875 502.55367187 -512.09375 501.80859375 C-502.79325065 491.27612527 -492.8719105 480.92734114 -482 472 C-481.22140625 471.35546875 -480.4428125 470.7109375 -479.640625 470.046875 C-477.3364948 468.15176199 -475.02521779 466.265919 -472.70849609 464.38623047 C-470.7172815 462.77060937 -468.72776627 461.15290664 -466.73828125 459.53515625 C-462.82682692 456.35516111 -458.91387069 453.17702048 -455 450 C-462.10170358 450.54036692 -468.61515598 451.77144737 -475.44921875 453.71484375 C-479.06479281 454.69069772 -481.42906869 455.09686306 -485 454 C-472.55418601 437.89514633 -458.33977654 423.75057831 -441 413 C-440.34467285 412.59104492 -439.6893457 412.18208984 -439.01416016 411.76074219 C-428.53886956 405.32603247 -417.44830284 400.43413573 -406 396 C-405.14519043 395.66637451 -404.29038086 395.33274902 -403.40966797 394.98901367 C-349.85163272 374.73278173 -286.63449733 379.50090704 -234.921875 402.70703125 C-215.90404888 411.46214416 -198.76877978 422.96606835 -183.1875 436.9375 C-182.66542969 437.39809814 -182.14335937 437.85869629 -181.60546875 438.33325195 C-180.34248987 439.49219809 -179.16292729 440.74068594 -178 442 C-178 445 -178 445 -179.11401367 446.47045898 C-179.62681885 446.97391846 -180.13962402 447.47737793 -180.66796875 447.99609375 C-181.23193359 448.55490234 -181.79589844 449.11371094 -182.37695312 449.68945312 C-182.97443359 450.26630859 -183.57191406 450.84316406 -184.1875 451.4375 C-184.76564453 452.01048828 -185.34378906 452.58347656 -185.93945312 453.17382812 C-189.15401259 456.33027126 -192.47360344 459.19216712 -196 462 C-201.43473037 467.59349777 -206.17505998 473.88423187 -211 480 C-210.43941895 479.74943848 -209.87883789 479.49887695 -209.30126953 479.24072266 C-177.7654418 465.2014535 -146.9670068 454.32697116 -113 448 C-111.52430542 447.69980957 -111.52430542 447.69980957 -110.01879883 447.39355469 C-100.24362818 445.59930216 -90.4654385 445.69710626 -80.56225586 445.73925781 C-77.57189601 445.74996635 -74.5821384 445.73931763 -71.59179688 445.7265625 C-57.50500721 445.71493883 -44.36711829 446.85975368 -30.6875 450.4375 C-29.87216797 450.64181641 -29.05683594 450.84613281 -28.21679688 451.05664062 C18.56037075 463.00212257 55.20767732 492.73627152 79.875 533.875 C84.69680186 542.04509703 89.41564783 550.20204467 93 559 C93.62253042 560.37611986 94.24775043 561.75102475 94.875 563.125 C97.49561965 568.98584318 99.7352849 574.99479235 102 581 C102.36285311 568.23966572 101.24380656 555.69112734 100 543 C103.76828524 546.60649839 106.9508949 550.38323442 110.0625 554.5625 C112.34543996 557.62156963 114.58339248 560.58903184 117.30859375 563.27734375 C119 565 119 565 119 567 C119.57878906 567.25523437 120.15757812 567.51046875 120.75390625 567.7734375 C123.22692466 569.1239206 124.91041646 570.67184081 126.9375 572.625 C146.4732616 590.16602419 177.8193247 600.87268918 204 600 C203.175 599.56171875 202.35 599.1234375 201.5 598.671875 C173.02620895 583.03671295 151.93195129 560.78877947 142.15625 529.4140625 C140.62797609 523.83059281 139.45071205 518.17387179 138.3125 512.5 C138.10987549 511.5114502 137.90725098 510.52290039 137.69848633 509.50439453 C134.01155439 489.98534311 133.64064798 470.05286492 133.375 450.25 C133.33674219 447.82495003 133.29841019 445.39990123 133.26000977 442.97485352 C132.81387147 412.6525044 132.9055294 382.32463278 133 352 C135.54556257 354.44286498 137.05861509 356.71292951 138.671875 359.8671875 C139.41679199 361.31146118 139.41679199 361.31146118 140.17675781 362.78491211 C140.9555127 364.31450562 140.9555127 364.31450562 141.75 365.875 C142.82227441 367.9573621 143.89518806 370.03939515 144.96875 372.12109375 C145.48695313 373.12897949 146.00515625 374.13686523 146.5390625 375.17529297 C148.40514752 378.7833484 150.31424493 382.36643735 152.25 385.9375 C152.79140625 386.93652344 153.3328125 387.93554688 153.890625 388.96484375 C154.25671875 389.63644531 154.6228125 390.30804687 155 391 C155.27639939 384.16679281 154.84476864 377.47613382 154.125 370.6875 C154.04652832 369.94266357 153.96805664 369.19782715 153.88720703 368.43041992 C153.23771505 362.57439575 152.39800852 356.75076019 151.55322266 350.92016602 C150.95369555 346.67188412 150.39653456 342.4196132 149.8515625 338.1640625 C145.11668705 301.24663345 138.89943516 264.83887793 129.40136719 228.82617188 C129.07297852 227.56353516 128.74458984 226.30089844 128.40625 225 C128.11041016 223.88625 127.81457031 222.7725 127.50976562 221.625 C127 219 127 219 128 217 C134.76528676 225.74726111 141.45959659 234.53701836 147.9375 243.5 C148.45594482 244.21591309 148.97438965 244.93182617 149.50854492 245.66943359 C152.17909834 249.38270912 154.80202546 253.1273279 157.37890625 256.90625 C157.88107666 257.64166016 158.38324707 258.37707031 158.90063477 259.13476562 C160 261 160 261 160 263 C160.66 263 161.32 263 162 263 C148.83486725 220.31660735 133.69454861 179.06695197 104 145 C101.17431951 146.36873455 98.91474242 147.80551014 96.5 149.8125 C85.03004379 158.60900777 71.95267863 160.07675338 58 159 C35.96929818 155.08866684 20.55821668 138.28384708 8 121 C6.75582704 119.18564035 5.53601197 117.35727155 4.32299805 115.52197266 C-0.42797362 107.92880632 -0.42797362 107.92880632 -8 104 C-13.35906617 103.71159624 -18.64068225 103.76838483 -24 104 C-24.268125 105.0415625 -24.53625 106.083125 -24.8125 107.15625 C-27.6900932 117.83961282 -31.73064832 127.28504145 -37 137 C-35.92105469 137.11988281 -34.84210938 137.23976563 -33.73046875 137.36328125 C-30.44590147 137.92389326 -28.92928503 138.33103992 -26.3125 140.1875 C-25.219375 140.785625 -24.12625 141.38375 -23 142 C-19.47453339 140.8625248 -17.37340797 138.52540237 -14.875 135.875 C-13.62172237 134.54605277 -12.33714433 133.24452827 -11 132 C-10.34 132 -9.68 132 -9 132 C-7.33830332 135.31646962 -6.2072268 138.2750982 -6 142 C-8.05299286 145.6896844 -10.85508229 148.22706181 -14 151 C-14.78375 151.86625 -15.5675 152.7325 -16.375 153.625 C-22.38513673 156.77316686 -29.41464181 153.99230983 -35.5625 152.1875 C-40.89201648 150.45900817 -45.93910581 148.3879559 -51 146 C-52.35158842 145.41071748 -53.705578 144.82689498 -55.0625 144.25 C-56.031875 143.8375 -57.00125 143.425 -58 143 C-59.05570732 136.95367628 -58.97386897 133.34217043 -56.92456055 127.59399414 C-55.91872752 124.77197778 -55.00327118 121.9299321 -54.09765625 119.07421875 C-53.76443359 118.02943359 -53.43121094 116.98464844 -53.08789062 115.90820312 C-52.40804396 113.77283713 -51.72835469 111.63742101 -51.04882812 109.50195312 C-50.71431641 108.45330078 -50.37980469 107.40464844 -50.03515625 106.32421875 C-49.70209473 105.27959473 -49.3690332 104.2349707 -49.02587891 103.15869141 C-47.99702872 99.9908514 -46.92002391 96.8420552 -45.83984375 93.69140625 C-44.33728963 89.20726149 -43.27347325 84.91119407 -42.5 80.25 C-40.45027426 69.60010223 -36.45099779 63.81269672 -29 56 C-34.84192612 56.98135123 -39.75555607 58.11555584 -45 61 C-45.66 61 -46.32 61 -47 61 C-47.25652344 61.82838379 -47.51304687 62.65676758 -47.77734375 63.51025391 C-49.14591369 67.41647169 -50.80472043 71.09335687 -52.5625 74.8359375 C-53.28010724 76.38029707 -53.99754872 77.92473368 -54.71484375 79.46923828 C-55.27534424 80.67196381 -55.27534424 80.67196381 -55.84716797 81.89898682 C-67.3587928 106.06533159 -67.3587928 106.06533159 -77 131 C-81.03889975 130.44858993 -83.51247307 129.27323775 -86.75 126.8125 C-87.52859375 126.24144531 -88.3071875 125.67039062 -89.109375 125.08203125 C-91.61733294 122.32016847 -91.91433912 120.7194856 -92 117 C-91.26025591 114.40369973 -90.46943626 112.09667384 -89.4375 109.625 C-88.93532249 108.36753675 -88.43407589 107.10970148 -87.93359375 105.8515625 C-87.64162109 105.1292041 -87.34964844 104.4068457 -87.04882812 103.66259766 C-85.71310993 100.27168923 -84.45116722 96.85427076 -83.18359375 93.4375 C-81.39992182 88.63447749 -79.55769071 83.86700942 -77.58982849 79.13632202 C-70.80417413 62.82070171 -65.93971085 49.00845327 -68 31 C-79.31146566 50.699714 -79.31146566 50.699714 -90.40063477 70.52490234 C-94.11839101 77.25495824 -97.94730569 83.92054321 -101.80371094 90.57202148 C-105.09113546 96.27913815 -108.11715417 102.0783937 -111 108 C-113.76473341 106.73583513 -115.80713203 105.44206692 -117.9453125 103.28515625 C-118.46480469 102.76373047 -118.98429687 102.24230469 -119.51953125 101.70507812 C-120.04933594 101.16302734 -120.57914063 100.62097656 -121.125 100.0625 C-121.66253906 99.52431641 -122.20007813 98.98613281 -122.75390625 98.43164062 C-128.79180096 92.325989 -128.79180096 92.325989 -129.4765625 87.96484375 C-128.79926607 82.32995954 -126.25973048 78.38160504 -123.375 73.5625 C-122.78887939 72.55678955 -122.20275879 71.5510791 -121.59887695 70.51489258 C-120.36174691 68.39524904 -119.11820387 66.27933696 -117.86865234 64.16699219 C-116.08614007 61.14599019 -114.32944866 58.11171957 -112.58203125 55.0703125 C-105.83355655 43.35445403 -98.84756379 31.80327592 -91.69580078 20.3293457 C-87.74284992 13.95425779 -84.0663767 7.50501465 -80.5625 0.875 C-76.47937669 -6.72782453 -72.14385512 -13.23348398 -63.64453125 -16.15234375 C-41.75863267 -21.24263313 -19.53740805 -8.49816908 0 0 Z " fill="#FCFDFC" transform="translate(666,203)"/>
<path d="M0 0 C4.04809035 1.58897004 6.37563353 4.30625948 9.25 7.5 C9.70890625 7.99886719 10.1678125 8.49773437 10.640625 9.01171875 C14 12.74102493 14 12.74102493 14 15 C13.34 15 12.68 15 12 15 C15.9833071 19.14499115 20.23833271 22.58684313 24.84521484 26.0390625 C28.59746852 28.87237552 32.11156052 31.87021196 35.625 35 C40.93238184 39.38301925 45.28365594 40.35530795 52 41 C53.8998672 41.3539967 55.79613455 41.72807965 57.6875 42.125 C58.93080078 42.37636719 58.93080078 42.37636719 60.19921875 42.6328125 C61.09060547 42.81457031 61.09060547 42.81457031 62 43 C60.98982568 49.50227151 57.91380286 55.13709326 53.2109375 59.7578125 C48.83389637 62.91000262 44.52515278 63.93771419 39.1640625 63.671875 C32.99257207 62.36138567 27.62847868 59.21479543 22.15869141 56.18066406 C19.96332357 54.97994038 17.74499211 53.83941986 15.51171875 52.7109375 C-5.57887568 42.00004347 -5.57887568 42.00004347 -10.18359375 32.58203125 C-12.42821864 25.48300228 -12.02873016 18.35227505 -8.875 11.625 C-6.39559306 7.27715745 -3.41155383 3.64956922 0 0 Z " fill="#247C10" transform="translate(522,323)"/>
<path d="M0 0 C0.33 0 0.66 0 1 0 C1.88855886 9.59111865 2.19886869 19.12071886 2.1875 28.75 C2.18789276 29.46388885 2.18828552 30.17777771 2.18869019 30.91329956 C2.18050014 43.45156701 1.44342301 55.83745269 0.24365234 68.3203125 C-0.12695837 72.39628765 -0.38473436 76.47705824 -0.625 80.5625 C-0.69976563 81.82191406 -0.77453125 83.08132813 -0.8515625 84.37890625 C-0.90054688 85.24386719 -0.94953125 86.10882812 -1 87 C-1.33 87 -1.66 87 -2 87 C-3.65020853 71.59062033 -2.28334239 56.39225472 -1 41 C-0.34 41 0.32 41 1 41 C0.96970703 40.32646484 0.93941406 39.65292969 0.90820312 38.95898438 C0.33249377 25.96566712 -0.17446749 13.00752077 0 0 Z " fill="#529945" transform="translate(1010,683)"/>
<path d="M0 0 C4.60023509 4.60023509 3.04518324 14.3042712 3.06591797 20.56201172 C3.06100294 23.70833039 3.03593284 26.85388003 3 30 C-0.184499 28.4077505 -0.54842508 25.13905856 -1.625 21.9375 C-1.85445312 21.27427734 -2.08390625 20.61105469 -2.3203125 19.92773438 C-2.88675776 18.28740331 -3.44422923 16.64397843 -4 15 C-3.01 14.67 -2.02 14.34 -1 14 C-0.67 9.38 -0.34 4.76 0 0 Z " fill="#368C29" transform="translate(766,755)"/>
<path d="M0 0 C1.4619869 2.9239738 2.53842837 5.40889941 3.5078125 8.4765625 C3.77207031 9.311875 4.03632812 10.1471875 4.30859375 11.0078125 C4.57800781 11.87148438 4.84742188 12.73515625 5.125 13.625 C5.40214844 14.49640625 5.67929687 15.3678125 5.96484375 16.265625 C8 22.74203356 8 22.74203356 8 25 C7.34 25 6.68 25 6 25 C4.37890625 22.76953125 4.37890625 22.76953125 2.5625 19.8125 C1.66724609 18.36810547 1.66724609 18.36810547 0.75390625 16.89453125 C-0.83802234 14.26731725 -2.42378339 11.63666816 -4 9 C-3.01 9 -2.02 9 -1 9 C-0.67 6.03 -0.34 3.06 0 0 Z " fill="#358D25" transform="translate(820,441)"/>
<path d="M0 0 C-3.78187881 1.83691257 -5.94568308 2.15837626 -10 1 C-10 1.66 -10 2.32 -10 3 C-7.03 3.495 -7.03 3.495 -4 4 C-4 4.99 -4 5.98 -4 7 C-9.56890517 6.52013969 -14.67067568 5.70084819 -20 4 C-19.67 3.34 -19.34 2.68 -19 2 C-16.54869706 1.32877471 -14.17728441 0.78530284 -11.6875 0.3125 C-11.01009766 0.17005859 -10.33269531 0.02761719 -9.63476562 -0.11914062 C-6.15916088 -0.80203071 -3.36221357 -1.28784016 0 0 Z " fill="#3F9134" transform="translate(703,881)"/>
<path d="M0 0 C4.26525609 4.0208514 7.71504127 8.41207085 11.1875 13.125 C11.98704102 14.19814453 11.98704102 14.19814453 12.80273438 15.29296875 C14.93382103 18.16122375 17.01725503 21.02588255 19 24 C18.01 24 17.02 24 16 24 C15.34 22.68 14.68 21.36 14 20 C13.34 20 12.68 20 12 20 C10.77905273 18.59472656 10.77905273 18.59472656 9.43359375 16.640625 C8.94826172 15.93679688 8.46292969 15.23296875 7.96289062 14.5078125 C7.45951172 13.76273437 6.95613281 13.01765625 6.4375 12.25 C5.93025391 11.52039063 5.42300781 10.79078125 4.90039062 10.0390625 C2.61817018 6.69626291 0.79575789 4.01843775 0 0 Z " fill="#2F831C" transform="translate(666,313)"/>
<path d="M0 0 C7.36259293 -0.22424141 13.87049629 0.09879901 21 2 C21 2.33 21 2.66 21 3 C10.77 3 0.54 3 -10 3 C-10 2.67 -10 2.34 -10 2 C-6.7 1.67 -3.4 1.34 0 1 C0 0.67 0 0.34 0 0 Z " fill="#439132" transform="translate(599,1147)"/>
<path d="M0 0 C-0.66 1.32 -1.32 2.64 -2 4 C-1.34 4.66 -0.68 5.32 0 6 C-1.74784829 6.36463732 -3.49840502 6.7163078 -5.25 7.0625 C-6.71179688 7.35833984 -6.71179688 7.35833984 -8.203125 7.66015625 C-10.868119 7.98397535 -12.48871723 7.85503199 -15 7 C-12.87767021 5.82823482 -10.75242209 4.66245215 -8.625 3.5 C-7.72007812 2.99919922 -7.72007812 2.99919922 -6.796875 2.48828125 C-2.2265625 0 -2.2265625 0 0 0 Z " fill="#D0E6CC" transform="translate(920,876)"/>
<path d="M0 0 C3 1 3 1 4.07495117 2.67407227 C4.39439697 3.38104248 4.71384277 4.0880127 5.04296875 4.81640625 C5.56987305 5.96206055 5.56987305 5.96206055 6.10742188 7.13085938 C6.46384766 7.93330078 6.82027344 8.73574219 7.1875 9.5625 C7.55552734 10.36880859 7.92355469 11.17511719 8.30273438 12.00585938 C9.21124489 13.99986298 10.10980336 15.99776958 11 18 C10.01 18 9.02 18 8 18 C6.66180502 15.3773768 5.3292849 12.75213401 4 10.125 C3.6184375 9.37863281 3.236875 8.63226563 2.84375 7.86328125 C2.4828125 7.14785156 2.121875 6.43242187 1.75 5.6953125 C1.41484375 5.03547363 1.0796875 4.37563477 0.734375 3.69580078 C0 2 0 2 0 0 Z " fill="#288115" transform="translate(1094,348)"/>
<path d="M0 0 C3.65141356 1.5255906 5.90118112 3.72480909 8.625 6.5625 C11.51070681 9.69042054 11.51070681 9.69042054 15 12 C14.67 12.99 14.34 13.98 14 15 C3.75285171 6.42585551 3.75285171 6.42585551 0 2 C0 1.34 0 0.68 0 0 Z " fill="#E6F0E3" transform="translate(539,295)"/>
<path d="M0 0 C0.66 0 1.32 0 2 0 C2.33 5.28 2.66 10.56 3 16 C2.67 16 2.34 16 2 16 C1.67 14.35 1.34 12.7 1 11 C0.01 11.66 -0.98 12.32 -2 13 C-1.48041715 8.62065881 -0.94324258 4.31196609 0 0 Z " fill="#5EA053" transform="translate(975,717)"/>
<path d="M0 0 C0.66 0 1.32 0 2 0 C2.6700834 2.12392506 3.33596797 4.24917524 4 6.375 C4.37125 7.55835938 4.7425 8.74171875 5.125 9.9609375 C6 13 6 13 6 15 C5.34 15 4.68 15 4 15 C0.40621058 9.60931587 -0.45356243 6.46326465 0 0 Z " fill="#45973A" transform="translate(822,451)"/>
<path d="M0 0 C-0.99 0 -1.98 0 -3 0 C-3.33 0.66 -3.66 1.32 -4 2 C-6.66307431 2.45121857 -9.25536558 2.79590928 -11.9375 3.0625 C-17.12593331 3.42713478 -17.12593331 3.42713478 -22 5 C-24.00800456 4.71887936 -26.01014051 4.38932033 -28 4 C-28 3.67 -28 3.34 -28 3 C-24.08559007 2.29921164 -20.168211 1.61668646 -16.25 0.9375 C-14.58324219 0.63875977 -14.58324219 0.63875977 -12.8828125 0.33398438 C-11.81289063 0.15029297 -10.74296875 -0.03339844 -9.640625 -0.22265625 C-8.16384277 -0.48187866 -8.16384277 -0.48187866 -6.65722656 -0.74633789 C-4.09865957 -0.99058184 -2.41709608 -0.80486291 0 0 Z " fill="#5EA054" transform="translate(962,875)"/>
<path d="M0 0 C4.88049925 3.9419417 9.0580583 8.11950075 13 13 C12.01 13.33 11.02 13.66 10 14 C8.894019 12.75160501 7.79029799 11.50120766 6.6875 10.25 C6.07261719 9.55390625 5.45773437 8.8578125 4.82421875 8.140625 C0 2.47965739 0 2.47965739 0 0 Z " fill="#31891F" transform="translate(254,950)"/>
<path d="M0 0 C2.0839403 0.11443603 4.16716493 0.24195547 6.25 0.375 C7.41015625 0.44460938 8.5703125 0.51421875 9.765625 0.5859375 C12.70694334 0.96248308 14.49949011 1.4774123 17 3 C15.88625 2.938125 14.7725 2.87625 13.625 2.8125 C11.830625 2.9053125 11.830625 2.9053125 10 3 C9.01 4.485 9.01 4.485 8 6 C6.66402348 5.19185349 5.331275 4.37836819 4 3.5625 C3.2575 3.11003906 2.515 2.65757812 1.75 2.19140625 C1.1725 1.79824219 0.595 1.40507813 0 1 C0 0.67 0 0.34 0 0 Z " fill="#CFE6C9" transform="translate(428,850)"/>
<path d="M0 0 C0.66 0.66 1.32 1.32 2 2 C-2.15207792 6.2626362 -6.36321221 10.26795129 -11 14 C-10.52590352 9.68269587 -7.96603297 7.66352539 -4.9375 4.75 C-4.01839844 3.85796875 -3.09929687 2.9659375 -2.15234375 2.046875 C-1.44207031 1.37140625 -0.73179687 0.6959375 0 0 Z " fill="#27841A" transform="translate(356,729)"/>
<path d="M0 0 C0 4.29 0 8.58 0 13 C-2.40785992 9.7895201 -3.68197635 7.64991166 -5 4 C-1.125 0 -1.125 0 0 0 Z " fill="#459B37" transform="translate(822,583)"/>
<path d="M0 0 C1.47742793 3.84131261 0.3587688 6.2434039 -1 10 C-1 10.99 -1 11.98 -1 13 C-2.27754554 15.0360882 -3.60699818 17.04109119 -5 19 C-6 17 -6 17 -5.29296875 14.609375 C-4.92816406 13.66578125 -4.56335937 12.7221875 -4.1875 11.75 C-3.81496094 10.76902344 -3.44242188 9.78804687 -3.05859375 8.77734375 C-2.70925781 7.86082031 -2.35992188 6.94429687 -2 6 C-1.32318977 4.00340982 -0.65038501 2.00535378 0 0 Z " fill="#CBE4C8" transform="translate(1130,783)"/>
<path d="M0 0 C0.33 0 0.66 0 1 0 C1.33 5.94 1.66 11.88 2 18 C1.34 18 0.68 18 0 18 C-1.6875 15.625 -1.6875 15.625 -3 13 C-2.67 12.34 -2.34 11.68 -2 11 C-1.34 11 -0.68 11 0 11 C0 7.37 0 3.74 0 0 Z " fill="#D2E5CC" transform="translate(738,668)"/>
<path d="M0 0 C1.64846769 0.44876616 3.29373455 0.90930488 4.9375 1.375 C5.85402344 1.63023437 6.77054688 1.88546875 7.71484375 2.1484375 C10 3 10 3 11 5 C9.02 5.66 7.04 6.32 5 7 C0 1.125 0 1.125 0 0 Z " fill="#E0EEDB" transform="translate(752,903)"/>
<path d="M0 0 C3 1 3 1 4.38671875 3.21484375 C4.81597656 4.11332031 5.24523437 5.01179687 5.6875 5.9375 C6.12449219 6.83339844 6.56148437 7.72929688 7.01171875 8.65234375 C8 11 8 11 8 13 C5 12 5 12 3.61328125 9.78515625 C3.18402344 8.88667969 2.75476563 7.98820313 2.3125 7.0625 C1.87550781 6.16660156 1.43851563 5.27070312 0.98828125 4.34765625 C0 2 0 2 0 0 Z " fill="#3D8A2E" transform="translate(957,520)"/>
<path d="M0 0 C2.0625 0.4375 2.0625 0.4375 4 1 C2.92456217 1.98783194 1.83926783 2.96493943 0.75 3.9375 C-0.15492188 4.75541016 -0.15492188 4.75541016 -1.078125 5.58984375 C-3.08467305 7.06212799 -4.57002449 7.57529189 -7 8 C-6.02133662 6.85373678 -5.04205413 5.70800212 -4.0625 4.5625 C-3.51722656 3.92441406 -2.97195313 3.28632812 -2.41015625 2.62890625 C-1.63204305 1.73008851 -0.84063472 0.84063472 0 0 Z " fill="#318923" transform="translate(992,955)"/>
<path d="M0 0 C0.66 0.66 1.32 1.32 2 2 C-0.31 4.31 -2.62 6.62 -5 9 C-5.99 8.67 -6.98 8.34 -8 8 C-7.04578192 6.85073734 -6.08647955 5.70569459 -5.125 4.5625 C-4.59132813 3.92441406 -4.05765625 3.28632813 -3.5078125 2.62890625 C-2 1 -2 1 0 0 Z " fill="#318C21" transform="translate(585,175)"/>
<path d="M0 0 C0.33 0 0.66 0 1 0 C1.144375 0.763125 1.28875 1.52625 1.4375 2.3125 C1.9632594 5.08172908 1.9632594 5.08172908 3 8 C2.91382274 10.232269 2.76077759 12.46238486 2.5625 14.6875 C2.40974609 16.45673828 2.40974609 16.45673828 2.25390625 18.26171875 C2.12822266 19.61716797 2.12822266 19.61716797 2 21 C1.67 21 1.34 21 1 21 C0.25194283 13.97360585 -0.13794954 7.06608191 0 0 Z " fill="#569D45" transform="translate(1125,571)"/>
<path d="M0 0 C0.33 0.99 0.66 1.98 1 3 C-0.4096347 3.70180531 -1.82807641 4.38593958 -3.25 5.0625 C-4.03890625 5.44535156 -4.8278125 5.82820312 -5.640625 6.22265625 C-8 7 -8 7 -12 6 C-8.04 4.02 -4.08 2.04 0 0 Z " fill="#388C28" transform="translate(702,786)"/>
<path d="M0 0 C0.66 0 1.32 0 2 0 C0.58832253 5.26170694 -1.74850232 8.72171358 -5 13 C-5.66 12.34 -6.32 11.68 -7 11 C-6.401875 10.29875 -5.80375 9.5975 -5.1875 8.875 C-3.02259039 6.02969023 -1.50403364 3.23367233 0 0 Z " fill="#2D841F" transform="translate(581,369)"/>
<path d="M0 0 C3.3 1.65 6.6 3.3 10 5 C10 5.66 10 6.32 10 7 C5.76570244 5.68938409 1.92592596 4.05643741 -2 2 C-1.34 1.34 -0.68 0.68 0 0 Z " fill="#3F8C2F" transform="translate(842,143)"/>
<path d="M0 0 C1.65 0.33 3.3 0.66 5 1 C1.59568053 3.26954631 -0.16524202 3.36549949 -4.1875 3.625 C-5.27417969 3.69976563 -6.36085938 3.77453125 -7.48046875 3.8515625 C-8.31191406 3.90054688 -9.14335938 3.94953125 -10 4 C-9.34 3.01 -8.68 2.02 -8 1 C-5.36 1.33 -2.72 1.66 0 2 C0 1.34 0 0.68 0 0 Z " fill="#429237" transform="translate(704,1012)"/>
<path d="M0 0 C0.66 0.66 1.32 1.32 2 2 C1.09515208 3.15518918 0.1755794 4.29885406 -0.75 5.4375 C-1.26046875 6.07558594 -1.7709375 6.71367188 -2.296875 7.37109375 C-4.19667629 9.18810554 -5.43586908 9.60423197 -8 10 C-7.04367001 8.70684939 -6.08486149 7.41553147 -5.125 6.125 C-4.59132813 5.40570312 -4.05765625 4.68640625 -3.5078125 3.9453125 C-2 2 -2 2 0 0 Z " fill="#2D8820" transform="translate(934,834)"/>
<path d="M0 0 C-1 3 -1 3 -3.25 4.25 C-6.28236729 5.07700926 -8.01120724 4.85394079 -11 4 C-7.32740617 1.55160412 -4.45351799 0 0 0 Z " fill="#398E2A" transform="translate(238,575)"/>
<path d="M0 0 C-1.28965176 1.37562854 -2.62689293 2.70766393 -4 4 C-4.66 4 -5.32 4 -6 4 C-6 3.34 -6 2.68 -6 2 C-7.65 2 -9.3 2 -11 2 C-7.72338241 -1.27661759 -4.29690696 -1.43230232 0 0 Z " fill="#308B25" transform="translate(638,259)"/>
<path d="M0 0 C4.875 4.625 4.875 4.625 6 8 C5.34 8.66 4.68 9.32 4 10 C3.34 10 2.68 10 2 10 C1.34 6.7 0.68 3.4 0 0 Z " fill="#D7EAD4" transform="translate(793,420)"/>
<path d="M0 0 C-2.58403608 2.53835868 -3.76068358 2.99485632 -7.453125 3.07421875 C-8.70609375 2.94660156 -9.9590625 2.81898437 -11.25 2.6875 C-13.14492188 2.50767578 -13.14492188 2.50767578 -15.078125 2.32421875 C-16.04234375 2.21722656 -17.0065625 2.11023437 -18 2 C-18 1.67 -18 1.34 -18 1 C-11.96445452 0.30739642 -6.07593562 -0.11251733 0 0 Z " fill="#6BAA63" transform="translate(681,1115)"/>
<path d="M0 0 C0.66 1.32 1.32 2.64 2 4 C0.7260411 6.03833424 -0.61061923 8.03852126 -2 10 C-2.66 10 -3.32 10 -4 10 C-2.8905928 6.51329166 -1.73662334 3.22515763 0 0 Z " fill="#388E2B" transform="translate(328,960)"/>
<path d="M0 0 C-0.66 1.32 -1.32 2.64 -2 4 C-1.34 4.66 -0.68 5.32 0 6 C-2.31 6 -4.62 6 -7 6 C-6.75 4.125 -6.75 4.125 -6 2 C-3.85331506 0.61504198 -2.56128588 0 0 0 Z " fill="#E6F1E4" transform="translate(920,876)"/>
<path d="M0 0 C0.33 0.99 0.66 1.98 1 3 C1.66 3 2.32 3 3 3 C2.67 4.98 2.34 6.96 2 9 C2.66 9 3.32 9 4 9 C3.67 11.64 3.34 14.28 3 17 C2.67 17 2.34 17 2 17 C1.34 11.39 0.68 5.78 0 0 Z " fill="#549D46" transform="translate(93,685)"/>
<path d="M0 0 C0.33 0 0.66 0 1 0 C1.33 4.29 1.66 8.58 2 13 C1.34 13 0.68 13 0 13 C-0.33 13.99 -0.66 14.98 -1 16 C-0.67 10.72 -0.34 5.44 0 0 Z " fill="#69A75D" transform="translate(90,555)"/>
<path d="M0 0 C2.33333333 2.33333333 4.66666667 4.66666667 7 7 C6.625 9.125 6.625 9.125 6 11 C4.98805294 9.92781799 3.99081943 8.84173622 3 7.75 C2.443125 7.14671875 1.88625 6.5434375 1.3125 5.921875 C0 4 0 4 0 0 Z " fill="#2C811C" transform="translate(1002,266)"/>
<path d="M0 0 C0.66 0.33 1.32 0.66 2 1 C1.67 1.66 1.34 2.32 1 3 C0.34 3 -0.32 3 -1 3 C-1 3.66 -1 4.32 -1 5 C-2.75 6.6875 -2.75 6.6875 -5 8 C-6.32 7.67 -7.64 7.34 -9 7 C-6.03 4.69 -3.06 2.38 0 0 Z " fill="#2C851E" transform="translate(303,175)"/>
<path d="M0 0 C5.61 0.66 11.22 1.32 17 2 C17 2.33 17 2.66 17 3 C14.36 3.33 11.72 3.66 9 4 C9 3.34 9 2.68 9 2 C7.02 2.33 5.04 2.66 3 3 C3 2.34 3 1.68 3 1 C2.01 0.67 1.02 0.34 0 0 Z " fill="#4C963F" transform="translate(705,70)"/>
<path d="M0 0 C0.33 0 0.66 0 1 0 C1 3.3 1 6.6 1 10 C-0.32 10.33 -1.64 10.66 -3 11 C-2.01 7.37 -1.02 3.74 0 0 Z " fill="#CDE4CA" transform="translate(1134,771)"/>
<path d="M0 0 C1 3 1 3 0.00390625 5.04296875 C-0.47175781 5.75066406 -0.94742188 6.45835937 -1.4375 7.1875 C-1.91058594 7.90292969 -2.38367188 8.61835938 -2.87109375 9.35546875 C-3.24363281 9.89816406 -3.61617187 10.44085938 -4 11 C-4.66 10.34 -5.32 9.68 -6 9 C-4.02 6.03 -2.04 3.06 0 0 Z " fill="#2D8A21" transform="translate(556,214)"/>
<path d="M0 0 C0.33 0 0.66 0 1 0 C1.25 6.625 1.25 6.625 -1 10 C-1.66 10 -2.32 10 -3 10 C-2.39009109 6.44219804 -1.4216319 3.3171411 0 0 Z " fill="#3C912F" transform="translate(129,402)"/>
<path d="M0 0 C0.66 0.99 1.32 1.98 2 3 C0.1875 6 0.1875 6 -2 9 C-2.99 9 -3.98 9 -5 9 C-3.35 6.03 -1.7 3.06 0 0 Z " fill="#308923" transform="translate(594,239)"/>
<path d="M0 0 C0.66 0 1.32 0 2 0 C0.82744291 3.33727786 -0.18868404 5.77437487 -3 8 C-3.66 8 -4.32 8 -5 8 C-3.63055898 5.05043472 -2.12169591 2.47531189 0 0 Z " fill="#2E8722" transform="translate(1012,931)"/>
<path d="M0 0 C0.66 0 1.32 0 2 0 C1.38461538 7.50769231 1.38461538 7.50769231 -0.5625 10 C-1.036875 10.33 -1.51125 10.66 -2 11 C-1.40049704 7.31733897 -0.75241109 3.65456815 0 0 Z " fill="#3D8C31" transform="translate(1114,723)"/>
<path d="M0 0 C-9.41002278 3.62870159 -9.41002278 3.62870159 -14 2 C-9.38048134 -0.66510692 -5.12794215 -1.46986273 0 0 Z " fill="#5FA454" transform="translate(726,1109)"/>
<path d="M0 0 C-4.95 2.475 -4.95 2.475 -10 5 C-10.33 4.34 -10.66 3.68 -11 3 C-4.5 -1.125 -4.5 -1.125 0 0 Z " fill="#DFEEDD" transform="translate(312,917)"/>
<path d="M0 0 C3.465 1.485 3.465 1.485 7 3 C7 3.33 7 3.66 7 4 C3.37 4 -0.26 4 -4 4 C-2.68 3.67 -1.36 3.34 0 3 C0 2.01 0 1.02 0 0 Z " fill="#4D9B46" transform="translate(865,800)"/>
<path d="M0 0 C-1.65 1.65 -3.3 3.3 -5 5 C-5.99 3.68 -6.98 2.36 -8 1 C-2.25 -1.125 -2.25 -1.125 0 0 Z " fill="#2F8726" transform="translate(427,688)"/>
<path d="M0 0 C0.66 0.66 1.32 1.32 2 2 C-0.3125 4.0625 -0.3125 4.0625 -3 6 C-3.99 5.67 -4.98 5.34 -6 5 C-4.02 3.35 -2.04 1.7 0 0 Z " fill="#2C871F" transform="translate(367,719)"/>
<path d="M0 0 C0.33 0 0.66 0 1 0 C1.09038099 5.15171623 0.84681133 9.91913204 0 15 C-0.33 15 -0.66 15 -1 15 C-2.01603857 9.20858017 -1.96263236 5.5415502 0 0 Z " fill="#4E9940" transform="translate(1157,647)"/>
<path d="M0 0 C-0.33 0.99 -0.66 1.98 -1 3 C-4.5625 4.6875 -4.5625 4.6875 -8 6 C-8 5.01 -8 4.02 -8 3 C-2.25 0 -2.25 0 0 0 Z " fill="#28841A" transform="translate(215,584)"/>
<path d="M0 0 C0.99 0.33 1.98 0.66 3 1 C1.515 4.465 1.515 4.465 0 8 C-0.66 7.67 -1.32 7.34 -2 7 C-1.42415568 4.61435923 -0.77772405 2.33317216 0 0 Z " fill="#EFF7EE" transform="translate(513,329)"/>
<path d="M0 0 C0.33 0 0.66 0 1 0 C2.35384615 7.38461538 2.35384615 7.38461538 0.5625 10.5 C0.046875 10.995 -0.46875 11.49 -1 12 C-1.14285714 3.42857143 -1.14285714 3.42857143 0 0 Z " fill="#4B963C" transform="translate(268,906)"/>
<path d="M0 0 C-1.15173355 2.46800047 -2.04783565 4.04783565 -4 6 C-6.125 5.625 -6.125 5.625 -8 5 C-2.25 0 -2.25 0 0 0 Z " fill="#2E8720" transform="translate(923,847)"/>
<path d="M0 0 C0 2.97 0 5.94 0 9 C-1.77706209 6.33440687 -2.87548273 3.9719385 -4 1 C-1 0 -1 0 0 0 Z " fill="#2C8819" transform="translate(766,769)"/>
<path d="M0 0 C3 1 3 1 4.6875 4.0625 C5.120625 5.031875 5.55375 6.00125 6 7 C5.01 7 4.02 7 3 7 C0 2.77777778 0 2.77777778 0 0 Z " fill="#298416" transform="translate(1076,316)"/>
<path d="M0 0 C0.6875 1.6875 0.6875 1.6875 1 4 C-0.3125 6.75 -0.3125 6.75 -2 9 C-2.66 9 -3.32 9 -4 9 C-2.80100302 5.9168649 -1.52299523 2.93720508 0 0 Z " fill="#328C25" transform="translate(587,251)"/>
<path d="M0 0 C0 0.33 0 0.66 0 1 C-4.79137588 2.6290678 -8.05632546 3.20577428 -13 2 C-13 1.67 -13 1.34 -13 1 C-8.59085217 -0.10228696 -4.51617599 -0.07654536 0 0 Z " fill="#B8D6B4" transform="translate(703,1145)"/>
<path d="M0 0 C-4.43956276 2.29632557 -7.05687635 3.20238143 -12 2 C-8.09971775 -0.60018816 -4.52565431 -0.15085514 0 0 Z " fill="#539A48" transform="translate(706,1112)"/>
<path d="M0 0 C-3.06246747 1.78409802 -5.22079273 2.22880021 -8.75 2.125 C-9.54921875 2.10695313 -10.3484375 2.08890625 -11.171875 2.0703125 C-11.77515625 2.04710937 -12.3784375 2.02390625 -13 2 C-8.7920942 -0.80527053 -4.85771358 -1.68151624 0 0 Z " fill="#599C50" transform="translate(933,880)"/>
<path d="M0 0 C0.33 1.32 0.66 2.64 1 4 C-0.9375 6.25 -0.9375 6.25 -3 8 C-3.66 7.67 -4.32 7.34 -5 7 C-3.35 4.69 -1.7 2.38 0 0 Z " fill="#328826" transform="translate(329,760)"/>
<path d="M0 0 C1.42944945 2.35438733 2.08661261 3.48032433 1.625 6.25 C1.41875 6.8275 1.2125 7.405 1 8 C0.34 8 -0.32 8 -1 8 C-1.33 8.99 -1.66 9.98 -2 11 C-1 3.57142857 -1 3.57142857 0 0 Z " fill="#569F48" transform="translate(1109,743)"/>
<path d="M0 0 C-1.15173355 2.46800047 -2.04783565 4.04783565 -4 6 C-4.99 5.67 -5.98 5.34 -7 5 C-2.25 0 -2.25 0 0 0 Z " fill="#2D861D" transform="translate(278,197)"/>
<path d="M0 0 C0 0.33 0 0.66 0 1 C-4.79137588 2.6290678 -8.05632546 3.20577428 -13 2 C-13 1.67 -13 1.34 -13 1 C-8.59085217 -0.10228696 -4.51617599 -0.07654536 0 0 Z " fill="#569E4B" transform="translate(574,68)"/>
</svg>
