<?xml version="1.0" encoding="UTF-8"?>
<svg version="1.1" xmlns="http://www.w3.org/2000/svg" width="354" height="202">
<path d="M0 0 C3.55270399 1.776352 6.29303497 3.61071856 9.4375 6 C10.22411011 6.59603027 10.22411011 6.59603027 11.02661133 7.20410156 C15.85225114 10.86754915 20.65197373 14.56511508 25.44921875 18.265625 C29.45717371 21.3554932 33.47862784 24.42762686 37.5 27.5 C44.67790151 32.98550527 51.84245105 38.48796795 59 44 C61.16644651 45.66695292 63.33322476 47.33347441 65.5 49 C66.56641231 49.82030462 67.63281854 50.64061715 68.69921875 51.4609375 C69.23337402 51.87182617 69.7675293 52.28271484 70.31787109 52.70605469 C75.21191406 56.47070313 80.10595703 60.23535156 85 64 C88.92041745 61.75873193 92.43852606 59.21099783 96 56.4375 C97.1561945 55.54029306 98.31244611 54.6431597 99.46875 53.74609375 C100.05527344 53.28960449 100.64179688 52.83311523 101.24609375 52.36279297 C103.98929429 50.23131393 106.74492964 48.11609824 109.5 46 C110.58339997 45.1667533 111.66673314 44.33341974 112.75 43.5 C114.91666667 41.83333333 117.08333333 40.16666667 119.25 38.5 C119.78592773 38.0877417 120.32185547 37.6754834 120.87402344 37.25073242 C121.96058779 36.41492624 123.04717645 35.57915165 124.13378906 34.7434082 C126.79288548 32.69816364 129.4514994 30.65230009 132.109375 28.60546875 C134.79746099 26.53591001 137.48651016 24.46762574 140.17675781 22.40087891 C141.46804776 21.40872281 142.75903305 20.41617015 144.04980469 19.42333984 C169.31213268 0 169.31213268 0 171 0 C171 56.43 171 112.86 171 171 C160.77 171 150.54 171 140 171 C140 135.69 140 100.38 140 64 C127.33565078 73.47477682 127.33565078 73.47477682 114.8125 83.125 C113.30226605 84.30361958 111.79184801 85.48200332 110.28125 86.66015625 C109.559375 87.2236377 108.8375 87.78711914 108.09375 88.36767578 C93.22880402 99.95664836 93.22880402 99.95664836 86 105 C81.06920992 101.82358194 76.4791507 98.31727566 71.875 94.6875 C64.32139414 88.76910541 56.68507146 82.97174708 48.98974609 77.23901367 C48.20809082 76.65611572 47.42643555 76.07321777 46.62109375 75.47265625 C45.9448999 74.97000244 45.26870605 74.46734863 44.57202148 73.94946289 C40.68586195 71.00394947 36.84911689 67.99375758 33 65 C32.67 99.98 32.34 134.96 32 171 C21.44 171 10.88 171 0 171 C0 114.57 0 58.14 0 0 Z " fill="#247D0D" transform="translate(92,20)"/>
<path d="M0 0 C0.33 0 0.66 0 1 0 C4.24857932 43.35387481 2.87104268 75.02584591 -20.85766602 112.89379883 C-29.03828149 125.99628054 -35.63582585 140.1275855 -42.42773438 153.98242188 C-43.46097855 156.07046256 -44.51701159 158.14743734 -45.59936523 160.21044922 C-47.03042548 162.90641012 -47.03042548 162.90641012 -47.87133789 165.52783203 C-48.95501776 168.18321431 -49.62027345 169.36316175 -52 171 C-57.9645574 171.9948204 -63.79132098 171.75115395 -69.8125 171.5 C-71.47582653 171.45985353 -73.13924537 171.42335474 -74.80273438 171.390625 C-78.87077097 171.30263668 -82.9343765 171.16471556 -87 171 C-85.14630961 166.00703644 -82.72662821 161.30946971 -80.34375 156.5546875 C-79.65110046 155.16795334 -79.65110046 155.16795334 -78.94445801 153.75320435 C-77.96363057 151.79086931 -76.98179375 149.82903851 -75.99902344 147.86767578 C-74.53024729 144.93538621 -73.06565585 142.00103616 -71.6015625 139.06640625 C-66.69548839 129.25114213 -61.71035648 119.48692049 -56.5715332 109.79147339 C-52.78183396 102.62691746 -49.15201765 95.38787793 -45.55371094 88.12573242 C-40.44930589 77.82822205 -35.31373725 67.55780716 -29.88891602 57.42456055 C-27.15336868 52.27815822 -24.52853852 47.08152886 -21.93359375 41.86328125 C-21.56626129 41.12508148 -21.19892883 40.38688171 -20.82046509 39.62631226 C-18.98258611 35.92980332 -17.1504945 32.23056093 -15.32617188 28.52734375 C-10.52937135 18.83166518 -5.39070716 9.37805166 0 0 Z " fill="#247D0D" transform="translate(90,20)"/>
<path d="M0 0 C2.18136885 2.02312521 3.61446728 3.86201626 4.92602539 6.52734375 C5.27430389 7.22731476 5.6225824 7.92728577 5.98141479 8.64846802 C6.34977448 9.40384857 6.71813416 10.15922913 7.09765625 10.9375 C7.48792999 11.72502655 7.87820374 12.5125531 8.28030396 13.32394409 C9.11393753 15.007321 9.94493281 16.69200655 10.77352905 18.37786865 C12.50479382 21.89975068 14.24872314 25.41528281 15.99412537 28.93017578 C16.82126921 30.59675604 17.64671447 32.26418088 18.47010803 33.93261719 C21.98833883 41.04344094 25.68193292 48.05639986 29.41796875 55.0546875 C33.4392076 62.67578282 37.22377768 70.42075893 41.06234741 78.13494873 C44.96141258 85.96734764 48.87792799 93.78177552 53 101.5 C57.86596726 110.61110421 62.44757435 119.86040514 67.0484314 129.1071167 C71.93888952 138.93165034 76.91579476 148.69959726 82.08203125 158.3828125 C82.72143067 159.5885011 83.3607588 160.79422751 84 162 C84.58136719 163.09054688 85.16273438 164.18109375 85.76171875 165.3046875 C87 168 87 168 87 171 C75.45 171 63.9 171 52 171 C49.89625 166.771875 47.7925 162.54375 45.625 158.1875 C41.53959374 149.99739005 37.43470308 141.82485546 33.125 133.75 C28.22086004 124.55499701 23.59493712 115.22508584 18.953125 105.89599609 C14.0297891 96.00536595 9.01888433 86.17150972 3.8203125 76.421875 C3.21960938 75.29265625 2.61890625 74.1634375 2 73 C1.63713898 72.4094281 1.27427795 71.8188562 0.90042114 71.21038818 C-0.34904962 68.14313967 -0.23912329 65.5197825 -0.22705078 62.21191406 C-0.22734283 61.53833359 -0.22763489 60.86475311 -0.22793579 60.17076111 C-0.22654641 57.95224974 -0.21100401 55.73407744 -0.1953125 53.515625 C-0.19158097 51.97434676 -0.18873466 50.43306613 -0.18673706 48.89178467 C-0.17911161 44.84097714 -0.15947253 40.7903137 -0.1373291 36.73956299 C-0.1168472 32.6037389 -0.10773033 28.46789147 -0.09765625 24.33203125 C-0.07622555 16.22128815 -0.04210281 8.11066201 0 0 Z " fill="#247D0D" transform="translate(265,20)"/>
</svg>
